<svg width="50" height="46" viewBox="0 0 50 46" fill="none" xmlns="http://www.w3.org/2000/svg">
<path d="M46.001 0H4.27231C1.99218 0 0 1.48134 0 3.51591V41.2769C0 43.3225 1.99218 45.1455 4.27231 45.1455H45.9888C48.2812 45.1455 49.9999 43.3104 49.9999 41.2769V3.51591C50.0133 1.48134 48.2812 0 46.001 0ZM15.4989 37.631H8.33593V17.5221H15.4989V37.631ZM12.1652 14.4647H12.1138C9.82141 14.4647 8.33704 12.9239 8.33704 10.9951C8.33704 9.03111 9.86048 7.5266 12.2042 7.5266C14.548 7.5266 15.9821 9.02003 16.0335 10.9951C16.0323 12.9239 14.548 14.4647 12.1652 14.4647ZM41.6774 37.631H34.5145V26.6358C34.5145 24.0017 33.472 22.2019 30.8805 22.2019C28.9006 22.2019 27.7288 23.4112 27.2075 24.5892C27.0122 25.0124 26.9598 25.5888 26.9598 26.1773V37.631H19.7968V17.5221H26.9598V20.3205C28.0022 18.9802 29.6305 17.0515 33.4196 17.0515C38.1216 17.0515 41.6785 19.8499 41.6785 25.8831L41.6774 37.631Z" fill="#0acf83"/>
</svg>
