<svg width="270" height="170" viewBox="0 0 270 170" fill="none" xmlns="http://www.w3.org/2000/svg">
<path d="M167 15H179V158H167V15Z" fill="white"/>
<path d="M194 26.9996L194.093 15L269.988 15.5856L269.895 27.5853L194 26.9996Z" fill="white"/>
<path d="M194 90.5848L194.093 78.5852L269.988 79.1708L269.895 91.1705L194 90.5848Z" fill="white"/>
<path d="M194 157.17L194.093 145.171L269.988 145.756L269.895 157.756L194 157.17Z" fill="white"/>
<path d="M27 15H39V163H27V15Z" fill="white"/>
<path d="M52.5597 148.432L105.477 148.97C112.917 149.046 118.455 147.302 122.091 143.738C125.728 140.095 127.58 135.034 127.646 128.554C127.711 122.154 125.961 117.136 122.398 113.5C118.836 109.784 113.335 107.888 105.895 107.812L52.9779 107.274L53.0889 96.3549L105.886 96.8914C112.846 96.9621 118.711 98.4218 123.483 101.27C128.174 104.118 131.655 107.954 133.926 112.777C136.198 117.52 137.304 122.852 137.244 128.772C137.184 134.691 135.969 140.039 133.601 144.815C131.233 149.512 127.675 153.236 122.927 155.988C118.099 158.659 112.206 159.959 105.246 159.888L52.4487 159.352L52.5597 148.432Z" fill="white"/>
<path d="M53.5597 67.4323L106.477 67.97C113.917 68.0456 119.455 66.3017 123.091 62.7385C126.728 59.0953 128.58 54.0338 128.646 47.5541C128.711 41.1545 126.961 36.1364 123.398 32.5001C119.836 28.7837 114.335 26.8877 106.895 26.8121L53.9779 26.2744L54.0889 15.3549L106.886 15.8914C113.846 15.9621 119.711 17.4218 124.483 20.2704C129.174 23.1183 132.655 26.9538 134.926 31.7772C137.198 36.5205 138.304 41.852 138.244 47.7717C138.184 53.6914 136.969 59.0393 134.601 63.8155C132.233 68.5117 128.675 72.2357 123.927 74.9876C119.099 77.6587 113.206 78.9589 106.246 78.8882L53.4487 78.3517L53.5597 67.4323Z" fill="white"/>
</svg>
