<svg width="507" height="880" viewBox="0 0 507 880" fill="none" xmlns="http://www.w3.org/2000/svg">
<path d="M504.5 587.5V589.5H506.5V587.5H504.5ZM88.0002 587.5V585.5H87.9401L87.8802 585.504L88.0002 587.5ZM43.0002 681L41.807 682.605L41.9905 682.742L42.2001 682.833L43.0002 681ZM115.186 878.842C115.651 879.844 116.84 880.279 117.842 879.814L134.17 872.239C135.172 871.774 135.608 870.585 135.143 869.583C134.678 868.581 133.489 868.146 132.487 868.611L117.973 875.344L111.239 860.83C110.774 859.828 109.585 859.392 108.583 859.857C107.581 860.322 107.146 861.511 107.611 862.513L115.186 878.842ZM502.5 0.5V587.5H506.5V0.5H502.5ZM504.5 585.5H88.0002V589.5H504.5V585.5ZM87.8802 585.504C74.6129 586.301 59.4303 588.357 45.5227 592.063C31.6667 595.755 18.8404 601.146 10.5016 608.761C6.30768 612.59 3.1894 617.036 1.70417 622.163C0.213893 627.307 0.414596 632.977 2.60247 639.154C6.94016 651.399 19.1216 665.742 41.807 682.605L44.1934 679.395C21.6788 662.658 10.3019 648.909 6.3729 637.818C4.42744 632.326 4.31773 627.517 5.5462 623.276C6.77972 619.018 9.40936 615.175 13.1988 611.714C20.8267 604.749 32.9087 599.564 46.5527 595.928C60.1451 592.306 75.0541 590.282 88.1202 589.496L87.8802 585.504ZM42.2001 682.833C91.9382 704.544 114.395 741.385 122.344 778.667C130.315 816.053 123.69 853.915 115.122 877.312L118.878 878.688C127.643 854.752 134.418 816.113 126.256 777.833C118.072 739.448 94.862 701.456 43.8003 679.167L42.2001 682.833Z" fill="black"/>
</svg>
