<svg width="640" height="745" viewBox="0 0 640 745" fill="none" xmlns="http://www.w3.org/2000/svg">
<path d="M638 484.5V486.5H640V484.5H638ZM134.5 484.5L134.251 486.484L134.375 486.5H134.5V484.5ZM3.52552 742.818C3.7014 743.909 4.72799 744.65 5.81846 744.474L23.5888 741.608C24.6793 741.432 25.4207 740.406 25.2448 739.315C25.0689 738.225 24.0424 737.483 22.9519 737.659L7.15602 740.207L4.6083 724.411C4.43242 723.321 3.40583 722.579 2.31536 722.755C1.22488 722.931 0.483457 723.958 0.659339 725.048L3.52552 742.818ZM636 0.5V484.5H640V0.5H636ZM638 482.5H134.5V486.5H638V482.5ZM134.749 482.516C117.166 480.307 90.939 482.732 69.3913 497.319C47.7042 512 31.083 538.782 32.501 584.562L36.4991 584.438C35.117 539.818 51.2459 514.433 71.6337 500.631C92.1611 486.735 117.334 484.36 134.251 486.484L134.749 482.516ZM32.501 584.562C35.2934 674.719 14.3574 726.82 3.87864 741.329L7.12136 743.671C18.3092 728.18 39.3066 675.081 36.4991 584.438L32.501 584.562Z" fill="black"/>
</svg>
