<svg width="243" height="148" viewBox="0 0 243 148" fill="none" xmlns="http://www.w3.org/2000/svg">
<path d="M140 1.0252e-05H152V143H140V1.0252e-05Z" fill="#232323"/>
<path d="M167 11.9996L167.093 0L242.988 0.585648L242.895 12.5853L167 11.9996Z" fill="#232323"/>
<path d="M167 75.5849L167.093 63.5853L242.988 64.1709L242.895 76.1706L167 75.5849Z" fill="#232323"/>
<path d="M167 142.17L167.093 130.171L242.988 130.756L242.895 142.756L167 142.17Z" fill="#232323"/>
<path d="M0 1.0252e-05H12V148H0V1.0252e-05Z" fill="#232323"/>
<path d="M25.5597 133.432L78.477 133.97C85.9166 134.046 91.4546 132.302 95.091 128.739C98.7282 125.095 100.58 120.034 100.646 113.554C100.711 107.154 98.9615 102.136 95.3982 98.5001C91.8358 94.7837 86.3348 92.8877 78.8952 92.8121L25.9779 92.2744L26.0889 81.3549L78.8861 81.8914C85.8458 81.9622 91.7113 83.4218 96.4826 86.2705C101.174 89.1183 104.655 92.9538 106.926 97.7772C109.198 102.52 110.304 107.852 110.244 113.772C110.184 119.691 108.969 125.039 106.601 129.816C104.233 134.512 100.675 138.236 95.9266 140.988C91.0992 143.659 85.2057 144.959 78.246 144.888L25.4487 144.352L25.5597 133.432Z" fill="#232323"/>
<path d="M26.5597 52.4323L79.477 52.97C86.9166 53.0456 92.4546 51.3017 96.091 47.7385C99.7282 44.0953 101.58 39.0338 101.646 32.5542C101.711 26.1545 99.9615 21.1365 96.3982 17.5001C92.8358 13.7837 87.3348 11.8877 79.8952 11.8121L26.9779 11.2744L27.0889 0.354954L79.8861 0.891438C86.8458 0.962156 92.7113 2.42183 97.4826 5.27046C102.174 8.11827 105.655 11.9538 107.926 16.7772C110.198 21.5205 111.304 26.852 111.244 32.7717C111.184 38.6914 109.969 44.0393 107.601 48.8155C105.233 53.5117 101.675 57.2357 96.9266 59.9876C92.0992 62.6587 86.2057 63.9589 79.246 63.8882L26.4487 63.3517L26.5597 52.4323Z" fill="#232323"/>
</svg>
