<svg width="478" height="854" viewBox="0 0 478 854" fill="none" xmlns="http://www.w3.org/2000/svg">
<path d="M2 587.5H0V589.5H2V587.5ZM350.5 587.5V589.5H350.62L350.74 589.486L350.5 587.5ZM470 642.5L471.815 643.339L471.922 643.109L471.967 642.86L470 642.5ZM469.422 853.915C470.479 854.234 471.595 853.636 471.915 852.578L477.119 835.347C477.438 834.29 476.84 833.173 475.782 832.854C474.725 832.535 473.609 833.133 473.289 834.19L468.664 849.507L453.347 844.881C452.29 844.562 451.173 845.16 450.854 846.218C450.535 847.275 451.133 848.391 452.19 848.711L469.422 853.915ZM0 0.5V587.5H4V0.5H0ZM2 589.5H350.5V585.5H2V589.5ZM350.74 589.486C372.696 586.834 404.871 586.41 430.164 593.623C442.811 597.23 453.519 602.686 460.427 610.517C467.254 618.256 470.531 628.494 468.033 642.14L471.967 642.86C474.669 628.106 471.129 616.602 463.426 607.871C455.804 599.23 444.268 593.486 431.261 589.777C405.245 582.357 372.471 582.832 350.26 585.514L350.74 589.486ZM468.185 641.661C426.259 732.364 450.684 820.202 468.237 852.945L471.763 851.055C454.649 819.131 430.541 732.636 471.815 643.339L468.185 641.661Z" fill="black"/>
</svg>
