<svg width="208" height="88" viewBox="0 0 208 88" fill="none" xmlns="http://www.w3.org/2000/svg">
<path d="M3.83523 46V11.0909H16.6193C19.0966 11.0909 21.1477 11.5 22.7727 12.3182C24.3977 13.125 25.6136 14.2216 26.4205 15.608C27.2273 16.983 27.6307 18.5341 27.6307 20.2614C27.6307 21.7159 27.3636 22.9432 26.8295 23.9432C26.2955 24.9318 25.5795 25.7273 24.6818 26.3295C23.7955 26.9205 22.8182 27.3523 21.75 27.625V27.9659C22.9091 28.0227 24.0398 28.3977 25.142 29.0909C26.2557 29.7727 27.1761 30.7443 27.9034 32.0057C28.6307 33.267 28.9943 34.8011 28.9943 36.608C28.9943 38.392 28.5739 39.9943 27.733 41.4148C26.9034 42.8239 25.6193 43.9432 23.8807 44.7727C22.142 45.5909 19.9205 46 17.2159 46H3.83523ZM9.10227 41.483H16.7045C19.2273 41.483 21.0341 40.9943 22.125 40.017C23.2159 39.0398 23.7614 37.8182 23.7614 36.3523C23.7614 35.25 23.483 34.2386 22.9261 33.3182C22.3693 32.3977 21.5739 31.6648 20.5398 31.1193C19.517 30.5739 18.3011 30.3011 16.892 30.3011H9.10227V41.483ZM9.10227 26.1932H16.1591C17.3409 26.1932 18.4034 25.9659 19.3466 25.5114C20.3011 25.0568 21.0568 24.4205 21.6136 23.6023C22.1818 22.7727 22.4659 21.7955 22.4659 20.6705C22.4659 19.2273 21.9602 18.017 20.9489 17.0398C19.9375 16.0625 18.3864 15.5739 16.2955 15.5739H9.10227V26.1932ZM46.1165 46.5284C43.5369 46.5284 41.3153 45.9773 39.4517 44.875C37.5994 43.7614 36.1676 42.1989 35.1562 40.1875C34.1562 38.1648 33.6562 35.7955 33.6562 33.0795C33.6562 30.3977 34.1562 28.0341 35.1562 25.9886C36.1676 23.9432 37.5767 22.3466 39.3835 21.1989C41.2017 20.0511 43.3267 19.4773 45.7585 19.4773C47.2358 19.4773 48.6676 19.7216 50.054 20.2102C51.4403 20.6989 52.6847 21.4659 53.7869 22.5114C54.8892 23.5568 55.7585 24.9148 56.3949 26.5852C57.0313 28.2443 57.3494 30.2614 57.3494 32.6364V34.4432H36.5369V30.625H52.3551C52.3551 29.2841 52.0824 28.0966 51.5369 27.0625C50.9915 26.017 50.2244 25.1932 49.2358 24.5909C48.2585 23.9886 47.1108 23.6875 45.7926 23.6875C44.3608 23.6875 43.1108 24.0398 42.0426 24.7443C40.9858 25.4375 40.1676 26.3466 39.5881 27.4716C39.0199 28.5852 38.7358 29.7955 38.7358 31.1023V34.0852C38.7358 35.8352 39.0426 37.3239 39.6562 38.5511C40.2812 39.7784 41.1506 40.7159 42.2642 41.3636C43.3778 42 44.679 42.3182 46.1676 42.3182C47.1335 42.3182 48.0142 42.1818 48.8097 41.9091C49.6051 41.625 50.2926 41.2045 50.8722 40.6477C51.4517 40.0909 51.8949 39.4034 52.2017 38.5852L57.0256 39.4545C56.6392 40.875 55.946 42.1193 54.946 43.1875C53.9574 44.2443 52.7131 45.0682 51.2131 45.6591C49.7244 46.2386 48.0256 46.5284 46.1165 46.5284ZM63.0043 46V19.8182H67.9304V23.9773H68.2031C68.6804 22.5682 69.5213 21.4602 70.7259 20.6534C71.9418 19.8352 73.3168 19.4261 74.8509 19.4261C75.169 19.4261 75.544 19.4375 75.9759 19.4602C76.419 19.483 76.7656 19.5114 77.0156 19.5455V24.4205C76.8111 24.3636 76.4474 24.3011 75.9247 24.233C75.402 24.1534 74.8793 24.1136 74.3565 24.1136C73.152 24.1136 72.0781 24.3693 71.1349 24.8807C70.2031 25.3807 69.4645 26.0795 68.919 26.9773C68.3736 27.8636 68.1009 28.875 68.1009 30.0114V46H63.0043ZM91.517 46.5284C89.0625 46.5284 86.9205 45.9659 85.0909 44.8409C83.2614 43.7159 81.8409 42.142 80.8295 40.1193C79.8182 38.0966 79.3125 35.733 79.3125 33.0284C79.3125 30.3125 79.8182 27.9375 80.8295 25.9034C81.8409 23.8693 83.2614 22.2898 85.0909 21.1648C86.9205 20.0398 89.0625 19.4773 91.517 19.4773C93.9716 19.4773 96.1136 20.0398 97.9432 21.1648C99.7727 22.2898 101.193 23.8693 102.205 25.9034C103.216 27.9375 103.722 30.3125 103.722 33.0284C103.722 35.733 103.216 38.0966 102.205 40.1193C101.193 42.142 99.7727 43.7159 97.9432 44.8409C96.1136 45.9659 93.9716 46.5284 91.517 46.5284ZM91.5341 42.25C93.125 42.25 94.4432 41.8295 95.4886 40.9886C96.5341 40.1477 97.3068 39.0284 97.8068 37.6307C98.3182 36.233 98.5739 34.6932 98.5739 33.0114C98.5739 31.3409 98.3182 29.8068 97.8068 28.4091C97.3068 27 96.5341 25.8693 95.4886 25.017C94.4432 24.1648 93.125 23.7386 91.5341 23.7386C89.9318 23.7386 88.6023 24.1648 87.5455 25.017C86.5 25.8693 85.7216 27 85.2102 28.4091C84.7102 29.8068 84.4602 31.3409 84.4602 33.0114C84.4602 34.6932 84.7102 36.233 85.2102 37.6307C85.7216 39.0284 86.5 40.1477 87.5455 40.9886C88.6023 41.8295 89.9318 42.25 91.5341 42.25ZM108.865 46V42.5057L123.047 24.4886V24.25H109.325V19.8182H129.405V23.5341L115.768 41.3295V41.5682H129.882V46H108.865ZM146.122 56.3636C144.043 56.3636 142.253 56.0909 140.753 55.5455C139.264 55 138.048 54.2784 137.105 53.3807C136.162 52.483 135.457 51.5 134.991 50.4318L139.372 48.625C139.679 49.125 140.088 49.6534 140.599 50.2102C141.122 50.7784 141.827 51.2614 142.713 51.6591C143.611 52.0568 144.764 52.2557 146.173 52.2557C148.105 52.2557 149.702 51.7841 150.963 50.8409C152.224 49.9091 152.855 48.4205 152.855 46.375V41.2273H152.531C152.224 41.7841 151.781 42.4034 151.202 43.0852C150.634 43.767 149.849 44.358 148.849 44.858C147.849 45.358 146.548 45.608 144.946 45.608C142.878 45.608 141.014 45.125 139.355 44.1591C137.707 43.1818 136.401 41.7443 135.435 39.8466C134.48 37.9375 134.003 35.5909 134.003 32.8068C134.003 30.0227 134.474 27.6364 135.418 25.6477C136.372 23.6591 137.679 22.1364 139.338 21.0795C140.997 20.0114 142.878 19.4773 144.98 19.4773C146.605 19.4773 147.918 19.75 148.918 20.2955C149.918 20.8295 150.696 21.4545 151.253 22.1705C151.821 22.8864 152.259 23.517 152.565 24.0625H152.94V19.8182H157.935V46.5795C157.935 48.8295 157.412 50.6761 156.366 52.1193C155.321 53.5625 153.906 54.6307 152.122 55.3239C150.349 56.017 148.349 56.3636 146.122 56.3636ZM146.071 41.3807C147.537 41.3807 148.776 41.0398 149.787 40.358C150.81 39.6648 151.582 38.6761 152.105 37.392C152.639 36.0966 152.906 34.5455 152.906 32.7386C152.906 30.9773 152.645 29.4261 152.122 28.0852C151.599 26.7443 150.832 25.6989 149.821 24.9489C148.81 24.1875 147.56 23.8068 146.071 23.8068C144.537 23.8068 143.259 24.2045 142.236 25C141.213 25.7841 140.44 26.8523 139.918 28.2045C139.406 29.5568 139.151 31.0682 139.151 32.7386C139.151 34.4545 139.412 35.9602 139.935 37.2557C140.457 38.5511 141.23 39.5625 142.253 40.2898C143.287 41.017 144.56 41.3807 146.071 41.3807ZM172.389 46.5795C170.73 46.5795 169.23 46.2727 167.889 45.6591C166.548 45.0341 165.486 44.1307 164.702 42.9489C163.929 41.767 163.543 40.3182 163.543 38.6023C163.543 37.125 163.827 35.9091 164.395 34.9545C164.963 34 165.73 33.2443 166.696 32.6875C167.662 32.1307 168.741 31.7102 169.935 31.4261C171.128 31.142 172.344 30.9261 173.582 30.7784C175.151 30.5966 176.423 30.4489 177.401 30.3352C178.378 30.2102 179.088 30.0114 179.531 29.7386C179.974 29.4659 180.196 29.0227 180.196 28.4091V28.2898C180.196 26.8011 179.776 25.6477 178.935 24.8295C178.105 24.0114 176.866 23.6023 175.219 23.6023C173.503 23.6023 172.151 23.983 171.162 24.7443C170.185 25.4943 169.509 26.3295 169.134 27.25L164.344 26.1591C164.912 24.5682 165.741 23.2841 166.832 22.3068C167.935 21.3182 169.202 20.6023 170.634 20.1591C172.065 19.7045 173.571 19.4773 175.151 19.4773C176.196 19.4773 177.304 19.6023 178.474 19.8523C179.656 20.0909 180.759 20.5341 181.781 21.1818C182.815 21.8295 183.662 22.7557 184.321 23.9602C184.98 25.1534 185.31 26.7045 185.31 28.6136V46H180.332V42.4205H180.128C179.798 43.0795 179.304 43.7273 178.645 44.3636C177.986 45 177.139 45.5284 176.105 45.9489C175.071 46.3693 173.832 46.5795 172.389 46.5795ZM173.497 42.4886C174.906 42.4886 176.111 42.2102 177.111 41.6534C178.122 41.0966 178.889 40.3693 179.412 39.4716C179.946 38.5625 180.213 37.5909 180.213 36.5568V33.1818C180.031 33.3636 179.679 33.5341 179.156 33.6932C178.645 33.8409 178.06 33.9716 177.401 34.0852C176.741 34.1875 176.099 34.2841 175.474 34.375C174.849 34.4545 174.327 34.5227 173.906 34.5795C172.918 34.7045 172.014 34.9148 171.196 35.2102C170.389 35.5057 169.741 35.9318 169.253 36.4886C168.776 37.0341 168.537 37.7614 168.537 38.6705C168.537 39.9318 169.003 40.8864 169.935 41.5341C170.866 42.1705 172.054 42.4886 173.497 42.4886ZM192.098 46V19.8182H197.024V23.9773H197.297C197.774 22.5682 198.615 21.4602 199.82 20.6534C201.036 19.8352 202.411 19.4261 203.945 19.4261C204.263 19.4261 204.638 19.4375 205.07 19.4602C205.513 19.483 205.859 19.5114 206.109 19.5455V24.4205C205.905 24.3636 205.541 24.3011 205.018 24.233C204.496 24.1534 203.973 24.1136 203.45 24.1136C202.246 24.1136 201.172 24.3693 200.229 24.8807C199.297 25.3807 198.558 26.0795 198.013 26.9773C197.467 27.8636 197.195 28.875 197.195 30.0114V46H192.098Z" fill="white"/>
<path d="M74.8182 80V56.7273H88.8636V59.2273H77.6364V67.0909H88.1364V69.5909H77.6364V77.5H89.0455V80H74.8182ZM96.2614 69.5V80H93.5795V62.5455H96.1705V65.2727H96.3977C96.8068 64.3864 97.428 63.6742 98.2614 63.1364C99.0947 62.5909 100.17 62.3182 101.489 62.3182C102.67 62.3182 103.705 62.5606 104.591 63.0455C105.477 63.5227 106.167 64.25 106.659 65.2273C107.152 66.197 107.398 67.4242 107.398 68.9091V80H104.716V69.0909C104.716 67.7197 104.36 66.6515 103.648 65.8864C102.936 65.1136 101.958 64.7273 100.716 64.7273C99.8598 64.7273 99.0947 64.9129 98.4205 65.2841C97.7538 65.6553 97.2273 66.197 96.8409 66.9091C96.4545 67.6212 96.2614 68.4848 96.2614 69.5ZM119.344 86.9091C118.048 86.9091 116.935 86.7424 116.003 86.4091C115.071 86.0833 114.295 85.6515 113.673 85.1136C113.06 84.5833 112.571 84.0152 112.207 83.4091L114.344 81.9091C114.586 82.2273 114.893 82.5909 115.264 83C115.635 83.4167 116.143 83.7765 116.787 84.0795C117.438 84.3902 118.291 84.5455 119.344 84.5455C120.753 84.5455 121.916 84.2045 122.832 83.5227C123.749 82.8409 124.207 81.7727 124.207 80.3182V76.7727H123.98C123.783 77.0909 123.503 77.4848 123.139 77.9545C122.783 78.4167 122.268 78.8295 121.594 79.1932C120.927 79.5492 120.026 79.7273 118.889 79.7273C117.48 79.7273 116.215 79.3939 115.094 78.7273C113.98 78.0606 113.098 77.0909 112.446 75.8182C111.802 74.5455 111.48 73 111.48 71.1818C111.48 69.3939 111.795 67.8371 112.423 66.5114C113.052 65.178 113.927 64.1477 115.048 63.4205C116.17 62.6856 117.465 62.3182 118.935 62.3182C120.071 62.3182 120.973 62.5076 121.639 62.8864C122.313 63.2576 122.829 63.6818 123.185 64.1591C123.548 64.6288 123.829 65.0152 124.026 65.3182H124.298V62.5455H126.889V80.5C126.889 82 126.548 83.2197 125.866 84.1591C125.192 85.1061 124.283 85.7992 123.139 86.2386C122.003 86.6856 120.738 86.9091 119.344 86.9091ZM119.253 77.3182C120.329 77.3182 121.238 77.072 121.98 76.5795C122.723 76.0871 123.287 75.3788 123.673 74.4545C124.06 73.5303 124.253 72.4242 124.253 71.1364C124.253 69.8788 124.063 68.7689 123.685 67.8068C123.306 66.8447 122.745 66.0909 122.003 65.5455C121.26 65 120.344 64.7273 119.253 64.7273C118.116 64.7273 117.17 65.0152 116.412 65.5909C115.662 66.1667 115.098 66.9394 114.719 67.9091C114.348 68.8788 114.162 69.9545 114.162 71.1364C114.162 72.3485 114.351 73.4205 114.73 74.3523C115.116 75.2765 115.685 76.0038 116.435 76.5341C117.192 77.0568 118.132 77.3182 119.253 77.3182ZM131.798 80V62.5455H134.48V80H131.798ZM133.162 59.6364C132.639 59.6364 132.188 59.4583 131.81 59.1023C131.438 58.7462 131.253 58.3182 131.253 57.8182C131.253 57.3182 131.438 56.8902 131.81 56.5341C132.188 56.178 132.639 56 133.162 56C133.685 56 134.132 56.178 134.503 56.5341C134.882 56.8902 135.071 57.3182 135.071 57.8182C135.071 58.3182 134.882 58.7462 134.503 59.1023C134.132 59.4583 133.685 59.6364 133.162 59.6364ZM142.074 69.5V80H139.392V62.5455H141.983V65.2727H142.21C142.619 64.3864 143.241 63.6742 144.074 63.1364C144.907 62.5909 145.983 62.3182 147.301 62.3182C148.483 62.3182 149.517 62.5606 150.403 63.0455C151.29 63.5227 151.979 64.25 152.472 65.2273C152.964 66.197 153.21 67.4242 153.21 68.9091V80H150.528V69.0909C150.528 67.7197 150.172 66.6515 149.46 65.8864C148.748 65.1136 147.771 64.7273 146.528 64.7273C145.672 64.7273 144.907 64.9129 144.233 65.2841C143.566 65.6553 143.04 66.197 142.653 66.9091C142.267 67.6212 142.074 68.4848 142.074 69.5ZM165.429 80.3636C163.747 80.3636 162.296 79.9924 161.077 79.25C159.865 78.5 158.929 77.4545 158.27 76.1136C157.618 74.7652 157.293 73.197 157.293 71.4091C157.293 69.6212 157.618 68.0455 158.27 66.6818C158.929 65.3106 159.846 64.2424 161.02 63.4773C162.202 62.7045 163.58 62.3182 165.156 62.3182C166.065 62.3182 166.963 62.4697 167.849 62.7727C168.736 63.0758 169.543 63.5682 170.27 64.25C170.997 64.9242 171.577 65.8182 172.009 66.9318C172.44 68.0455 172.656 69.4167 172.656 71.0455V72.1818H159.202V69.8636H169.929C169.929 68.8788 169.732 68 169.338 67.2273C168.952 66.4545 168.399 65.8447 167.679 65.3977C166.967 64.9508 166.126 64.7273 165.156 64.7273C164.088 64.7273 163.164 64.9924 162.384 65.5227C161.611 66.0455 161.016 66.7273 160.599 67.5682C160.183 68.4091 159.974 69.3106 159.974 70.2727V71.8182C159.974 73.1364 160.202 74.2538 160.656 75.1705C161.118 76.0795 161.759 76.7727 162.577 77.25C163.395 77.7197 164.346 77.9545 165.429 77.9545C166.134 77.9545 166.77 77.8561 167.338 77.6591C167.914 77.4545 168.41 77.1515 168.827 76.75C169.243 76.3409 169.565 75.8333 169.793 75.2273L172.384 75.9545C172.111 76.8333 171.652 77.6061 171.009 78.2727C170.365 78.9318 169.569 79.447 168.622 79.8182C167.675 80.1818 166.611 80.3636 165.429 80.3636ZM184.054 80.3636C182.372 80.3636 180.921 79.9924 179.702 79.25C178.49 78.5 177.554 77.4545 176.895 76.1136C176.243 74.7652 175.918 73.197 175.918 71.4091C175.918 69.6212 176.243 68.0455 176.895 66.6818C177.554 65.3106 178.471 64.2424 179.645 63.4773C180.827 62.7045 182.205 62.3182 183.781 62.3182C184.69 62.3182 185.588 62.4697 186.474 62.7727C187.361 63.0758 188.168 63.5682 188.895 64.25C189.622 64.9242 190.202 65.8182 190.634 66.9318C191.065 68.0455 191.281 69.4167 191.281 71.0455V72.1818H177.827V69.8636H188.554C188.554 68.8788 188.357 68 187.963 67.2273C187.577 66.4545 187.024 65.8447 186.304 65.3977C185.592 64.9508 184.751 64.7273 183.781 64.7273C182.713 64.7273 181.789 64.9924 181.009 65.5227C180.236 66.0455 179.641 66.7273 179.224 67.5682C178.808 68.4091 178.599 69.3106 178.599 70.2727V71.8182C178.599 73.1364 178.827 74.2538 179.281 75.1705C179.743 76.0795 180.384 76.7727 181.202 77.25C182.02 77.7197 182.971 77.9545 184.054 77.9545C184.759 77.9545 185.395 77.8561 185.963 77.6591C186.539 77.4545 187.035 77.1515 187.452 76.75C187.868 76.3409 188.19 75.8333 188.418 75.2273L191.009 75.9545C190.736 76.8333 190.277 77.6061 189.634 78.2727C188.99 78.9318 188.194 79.447 187.247 79.8182C186.3 80.1818 185.236 80.3636 184.054 80.3636ZM195.361 80V62.5455H197.952V65.1818H198.134C198.452 64.3182 199.027 63.6174 199.861 63.0795C200.694 62.5417 201.634 62.2727 202.679 62.2727C202.876 62.2727 203.122 62.2765 203.418 62.2841C203.713 62.2917 203.937 62.303 204.088 62.3182V65.0455C203.997 65.0227 203.789 64.9886 203.463 64.9432C203.145 64.8902 202.808 64.8636 202.452 64.8636C201.603 64.8636 200.846 65.0417 200.179 65.3977C199.52 65.7462 198.997 66.2311 198.611 66.8523C198.232 67.4659 198.043 68.1667 198.043 68.9545V80H195.361Z" fill="white" fill-opacity="0.78"/>
</svg>
