<svg width="65" height="72" viewBox="0 0 65 72" fill="none" xmlns="http://www.w3.org/2000/svg">
<path d="M27.9498 62V15.4545H44.2226C47.465 15.4545 50.1392 16.0152 52.2453 17.1364C54.3514 18.2424 55.9195 19.7348 56.9498 21.6136C57.9801 23.4773 58.4953 25.5455 58.4953 27.8182C58.4953 29.8182 58.1392 31.4697 57.4271 32.7727C56.7301 34.0758 55.8059 35.1061 54.6544 35.8636C53.518 36.6212 52.2832 37.1818 50.9498 37.5455V38C52.3741 38.0909 53.8059 38.5909 55.2453 39.5C56.6847 40.4091 57.8892 41.7121 58.8589 43.4091C59.8286 45.1061 60.3135 47.1818 60.3135 49.6364C60.3135 51.9697 59.7832 54.0682 58.7226 55.9318C57.662 57.7955 55.9877 59.2727 53.6998 60.3636C51.412 61.4545 48.4347 62 44.768 62H27.9498ZM33.5862 57H44.768C48.4498 57 51.0635 56.2879 52.6089 54.8636C54.1695 53.4242 54.9498 51.6818 54.9498 49.6364C54.9498 48.0606 54.5483 46.6061 53.7453 45.2727C52.9423 43.9242 51.7983 42.8485 50.3135 42.0455C48.8286 41.2273 47.0711 40.8182 45.0408 40.8182H33.5862V57ZM33.5862 35.9091H44.0408C45.7377 35.9091 47.268 35.5758 48.6317 34.9091C50.0104 34.2424 51.1014 33.303 51.9044 32.0909C52.7226 30.8788 53.1317 29.4545 53.1317 27.8182C53.1317 25.7727 52.4195 24.0379 50.9953 22.6136C49.5711 21.1742 47.3135 20.4545 44.2226 20.4545H33.5862V35.9091Z" fill="white"/>
<path d="M5.63636 62V15.4545H33.7273V20.4545H11.2727V36.1818H32.2727V41.1818H11.2727V57H34.0909V62H5.63636Z" fill="white"/>
</svg>
