<svg width="226" height="82" viewBox="0 0 226 82" fill="none" xmlns="http://www.w3.org/2000/svg">
<path d="M3.44318 46V11.0909H16.8068C19.3295 11.0909 21.4261 11.4886 23.0966 12.2841C24.7784 13.0682 26.0341 14.142 26.8636 15.5057C27.7045 16.8693 28.125 18.4148 28.125 20.142C28.125 21.5625 27.8523 22.7784 27.3068 23.7898C26.7614 24.7898 26.0284 25.6023 25.108 26.2273C24.1875 26.8523 23.1591 27.3011 22.0227 27.5739V27.9148C23.2614 27.983 24.4489 28.3636 25.5852 29.0568C26.733 29.7386 27.6705 30.7045 28.3977 31.9545C29.125 33.2045 29.4886 34.7159 29.4886 36.4886C29.4886 38.2955 29.0511 39.9205 28.1761 41.3636C27.3011 42.7955 25.983 43.9261 24.2216 44.7557C22.4602 45.5852 20.2443 46 17.5739 46H3.44318ZM9.76705 40.7159H16.5682C18.8636 40.7159 20.517 40.2784 21.5284 39.4034C22.5511 38.517 23.0625 37.3807 23.0625 35.9943C23.0625 34.9602 22.8068 34.0284 22.2955 33.1989C21.7841 32.358 21.0568 31.6989 20.1136 31.2216C19.1705 30.733 18.0455 30.4886 16.7386 30.4886H9.76705V40.7159ZM9.76705 25.9375H16.0227C17.1136 25.9375 18.0966 25.7386 18.9716 25.3409C19.8466 24.9318 20.5341 24.358 21.0341 23.6193C21.5455 22.8693 21.8011 21.983 21.8011 20.9602C21.8011 19.608 21.3239 18.4943 20.3693 17.6193C19.4261 16.7443 18.0227 16.3068 16.1591 16.3068H9.76705V25.9375ZM46.3082 46.5114C43.6832 46.5114 41.4162 45.9659 39.5071 44.875C37.6094 43.7727 36.1491 42.2159 35.1264 40.2045C34.1037 38.1818 33.5923 35.8011 33.5923 33.0625C33.5923 30.3693 34.1037 28.0057 35.1264 25.9716C36.1605 23.9261 37.6037 22.3352 39.456 21.1989C41.3082 20.0511 43.4844 19.4773 45.9844 19.4773C47.598 19.4773 49.1207 19.7386 50.5526 20.2614C51.9957 20.7727 53.2685 21.5682 54.3707 22.6477C55.4844 23.7273 56.3594 25.1023 56.9957 26.7727C57.6321 28.4318 57.9503 30.4091 57.9503 32.7045V34.5966H36.4901V30.4375H52.0355C52.0241 29.2557 51.7685 28.2045 51.2685 27.2841C50.7685 26.3523 50.0696 25.6193 49.1719 25.0852C48.2855 24.5511 47.2514 24.2841 46.0696 24.2841C44.8082 24.2841 43.7003 24.5909 42.7457 25.2045C41.7912 25.8068 41.0469 26.6023 40.5128 27.5909C39.9901 28.5682 39.723 29.642 39.7116 30.8125V34.4432C39.7116 35.9659 39.9901 37.2727 40.5469 38.3636C41.1037 39.4432 41.8821 40.2727 42.8821 40.8523C43.8821 41.4205 45.0526 41.7045 46.3935 41.7045C47.2912 41.7045 48.1037 41.5795 48.831 41.3295C49.5582 41.0682 50.1889 40.6875 50.723 40.1875C51.2571 39.6875 51.6605 39.0682 51.9332 38.3295L57.6946 38.9773C57.331 40.5 56.6378 41.8295 55.6151 42.9659C54.6037 44.0909 53.3082 44.9659 51.7287 45.5909C50.1491 46.2045 48.3423 46.5114 46.3082 46.5114ZM63.1705 46V19.8182H69.1534V24.1818H69.4261C69.9034 22.6705 70.7216 21.5057 71.8807 20.6875C73.0511 19.858 74.3864 19.4432 75.8864 19.4432C76.2273 19.4432 76.608 19.4602 77.0284 19.4943C77.4602 19.517 77.8182 19.5568 78.1023 19.6136V25.2898C77.8409 25.1989 77.4261 25.1193 76.858 25.0511C76.3011 24.9716 75.7614 24.9318 75.2386 24.9318C74.1136 24.9318 73.1023 25.1761 72.2045 25.6648C71.3182 26.142 70.6193 26.8068 70.108 27.6591C69.5966 28.5114 69.3409 29.4943 69.3409 30.608V46H63.1705ZM92.544 46.5114C89.9872 46.5114 87.7713 45.9489 85.8963 44.8239C84.0213 43.6989 82.5668 42.125 81.5327 40.1023C80.5099 38.0795 79.9986 35.7159 79.9986 33.0114C79.9986 30.3068 80.5099 27.9375 81.5327 25.9034C82.5668 23.8693 84.0213 22.2898 85.8963 21.1648C87.7713 20.0398 89.9872 19.4773 92.544 19.4773C95.1009 19.4773 97.3168 20.0398 99.1918 21.1648C101.067 22.2898 102.516 23.8693 103.538 25.9034C104.572 27.9375 105.089 30.3068 105.089 33.0114C105.089 35.7159 104.572 38.0795 103.538 40.1023C102.516 42.125 101.067 43.6989 99.1918 44.8239C97.3168 45.9489 95.1009 46.5114 92.544 46.5114ZM92.5781 41.5682C93.9645 41.5682 95.1236 41.1875 96.0554 40.4261C96.9872 39.6534 97.6804 38.6193 98.1349 37.3239C98.6009 36.0284 98.8338 34.5852 98.8338 32.9943C98.8338 31.392 98.6009 29.9432 98.1349 28.6477C97.6804 27.3409 96.9872 26.3011 96.0554 25.5284C95.1236 24.7557 93.9645 24.3693 92.5781 24.3693C91.1577 24.3693 89.9759 24.7557 89.0327 25.5284C88.1009 26.3011 87.402 27.3409 86.9361 28.6477C86.4815 29.9432 86.2543 31.392 86.2543 32.9943C86.2543 34.5852 86.4815 36.0284 86.9361 37.3239C87.402 38.6193 88.1009 39.6534 89.0327 40.4261C89.9759 41.1875 91.1577 41.5682 92.5781 41.5682ZM109.986 46V42.0795L123.486 25.1534V24.9318H110.429V19.8182H131.037V24.0284L118.185 40.6648V40.8864H131.48V46H109.986ZM147.916 56.3636C145.7 56.3636 143.797 56.0625 142.206 55.4602C140.615 54.8693 139.337 54.0739 138.371 53.0739C137.405 52.0739 136.734 50.9659 136.359 49.75L141.916 48.4034C142.166 48.9148 142.53 49.4205 143.007 49.9205C143.484 50.4318 144.126 50.8523 144.933 51.1818C145.751 51.5227 146.78 51.6932 148.018 51.6932C149.768 51.6932 151.217 51.267 152.365 50.4148C153.513 49.5739 154.087 48.1875 154.087 46.2557V41.2955H153.78C153.462 41.9318 152.996 42.5852 152.382 43.2557C151.78 43.9261 150.979 44.4886 149.979 44.9432C148.99 45.3977 147.746 45.625 146.246 45.625C144.234 45.625 142.411 45.1534 140.774 44.2102C139.149 43.2557 137.854 41.8352 136.888 39.9489C135.933 38.0511 135.456 35.6761 135.456 32.8239C135.456 29.9489 135.933 27.5227 136.888 25.5455C137.854 23.5568 139.155 22.0511 140.791 21.0284C142.428 19.9943 144.251 19.4773 146.263 19.4773C147.797 19.4773 149.058 19.7386 150.047 20.2614C151.047 20.7727 151.842 21.392 152.433 22.1193C153.024 22.8352 153.473 23.5114 153.78 24.1477H154.121V19.8182H160.206V46.4261C160.206 48.6648 159.672 50.517 158.604 51.983C157.536 53.4489 156.075 54.5455 154.223 55.2727C152.371 56 150.268 56.3636 147.916 56.3636ZM147.967 40.7841C149.274 40.7841 150.388 40.4659 151.308 39.8295C152.229 39.1932 152.928 38.2784 153.405 37.0852C153.882 35.892 154.121 34.4602 154.121 32.7898C154.121 31.142 153.882 29.6989 153.405 28.4602C152.939 27.2216 152.246 26.2614 151.325 25.5795C150.416 24.8864 149.297 24.5398 147.967 24.5398C146.592 24.5398 145.445 24.8977 144.524 25.6136C143.604 26.3295 142.911 27.3125 142.445 28.5625C141.979 29.8011 141.746 31.2102 141.746 32.7898C141.746 34.392 141.979 35.7955 142.445 37C142.922 38.1932 143.621 39.125 144.541 39.7955C145.473 40.4545 146.615 40.7841 147.967 40.7841ZM174.064 46.5284C172.405 46.5284 170.911 46.233 169.581 45.642C168.263 45.0398 167.217 44.1534 166.445 42.983C165.683 41.8125 165.303 40.3693 165.303 38.6534C165.303 37.1761 165.575 35.9545 166.121 34.9886C166.666 34.0227 167.411 33.25 168.354 32.6705C169.297 32.0909 170.359 31.6534 171.541 31.358C172.734 31.0511 173.967 30.8295 175.24 30.6932C176.774 30.5341 178.018 30.392 178.973 30.267C179.928 30.1307 180.621 29.9261 181.053 29.6534C181.496 29.3693 181.717 28.9318 181.717 28.3409V28.2386C181.717 26.9545 181.337 25.9602 180.575 25.2557C179.814 24.5511 178.717 24.1989 177.286 24.1989C175.774 24.1989 174.575 24.5284 173.689 25.1875C172.814 25.8466 172.223 26.625 171.916 27.5227L166.155 26.7045C166.609 25.1136 167.359 23.7841 168.405 22.7159C169.45 21.6364 170.729 20.8295 172.24 20.2955C173.751 19.75 175.422 19.4773 177.251 19.4773C178.513 19.4773 179.768 19.625 181.018 19.9205C182.268 20.2159 183.411 20.7045 184.445 21.3864C185.479 22.0568 186.308 22.9716 186.933 24.1307C187.57 25.2898 187.888 26.7386 187.888 28.4773V46H181.956V42.4034H181.751C181.376 43.1307 180.848 43.8125 180.166 44.4489C179.496 45.0739 178.649 45.5795 177.626 45.9659C176.615 46.3409 175.428 46.5284 174.064 46.5284ZM175.666 41.9943C176.905 41.9943 177.979 41.75 178.888 41.2614C179.797 40.7614 180.496 40.1023 180.984 39.2841C181.484 38.4659 181.734 37.5739 181.734 36.608V33.5227C181.541 33.6818 181.212 33.8295 180.746 33.9659C180.291 34.1023 179.78 34.2216 179.212 34.3239C178.643 34.4261 178.081 34.517 177.524 34.5966C176.967 34.6761 176.484 34.7443 176.075 34.8011C175.155 34.9261 174.331 35.1307 173.604 35.4148C172.876 35.6989 172.303 36.0966 171.882 36.608C171.462 37.108 171.251 37.7557 171.251 38.5511C171.251 39.6875 171.666 40.5455 172.496 41.125C173.325 41.7045 174.382 41.9943 175.666 41.9943ZM194.092 46V19.8182H200.075V24.1818H200.348C200.825 22.6705 201.643 21.5057 202.803 20.6875C203.973 19.858 205.308 19.4432 206.808 19.4432C207.149 19.4432 207.53 19.4602 207.95 19.4943C208.382 19.517 208.74 19.5568 209.024 19.6136V25.2898C208.763 25.1989 208.348 25.1193 207.78 25.0511C207.223 24.9716 206.683 24.9318 206.161 24.9318C205.036 24.9318 204.024 25.1761 203.126 25.6648C202.24 26.142 201.541 26.8068 201.03 27.6591C200.518 28.5114 200.263 29.4943 200.263 30.608V46H194.092Z" fill="black"/>
<path d="M69.7216 76V58.5455H81.0739V61.196H72.8835V65.9347H80.4858V68.5852H72.8835V73.3494H81.142V76H69.7216ZM87.2486 68.3295V76H84.1634V62.9091H87.1122V65.1335H87.2656C87.5668 64.4006 88.0469 63.8182 88.706 63.3864C89.3707 62.9545 90.1918 62.7386 91.169 62.7386C92.0724 62.7386 92.8594 62.9318 93.5298 63.3182C94.206 63.7045 94.7287 64.2642 95.098 64.9972C95.473 65.7301 95.6577 66.6193 95.652 67.6648V76H92.5668V68.142C92.5668 67.267 92.3395 66.5824 91.8849 66.0881C91.4361 65.5937 90.8139 65.3466 90.0185 65.3466C89.4787 65.3466 88.9986 65.4659 88.5781 65.7045C88.1634 65.9375 87.8366 66.2756 87.598 66.7188C87.3651 67.1619 87.2486 67.6989 87.2486 68.3295ZM104.482 81.1818C103.374 81.1818 102.422 81.0313 101.626 80.7301C100.831 80.4347 100.192 80.0369 99.7088 79.5369C99.2259 79.0369 98.8906 78.483 98.7031 77.875L101.482 77.2017C101.607 77.4574 101.788 77.7102 102.027 77.9602C102.266 78.2159 102.587 78.4261 102.99 78.5909C103.399 78.7614 103.913 78.8466 104.533 78.8466C105.408 78.8466 106.132 78.6335 106.706 78.2074C107.28 77.7869 107.567 77.0938 107.567 76.1278V73.6477H107.413C107.254 73.9659 107.021 74.2926 106.714 74.6278C106.413 74.9631 106.013 75.2443 105.513 75.4716C105.018 75.6989 104.396 75.8125 103.646 75.8125C102.641 75.8125 101.729 75.5767 100.911 75.1051C100.098 74.6278 99.4503 73.9176 98.9673 72.9744C98.4901 72.0256 98.2514 70.8381 98.2514 69.4119C98.2514 67.9744 98.4901 66.7614 98.9673 65.7727C99.4503 64.7784 100.101 64.0256 100.919 63.5142C101.737 62.9972 102.649 62.7386 103.655 62.7386C104.422 62.7386 105.053 62.8693 105.547 63.1307C106.047 63.3864 106.445 63.696 106.74 64.0597C107.036 64.4176 107.26 64.7557 107.413 65.0739H107.584V62.9091H110.626V76.2131C110.626 77.3324 110.359 78.2585 109.825 78.9915C109.291 79.7244 108.561 80.2727 107.635 80.6364C106.709 81 105.658 81.1818 104.482 81.1818ZM104.507 73.392C105.161 73.392 105.717 73.233 106.178 72.9148C106.638 72.5966 106.987 72.1392 107.226 71.5426C107.464 70.946 107.584 70.2301 107.584 69.3949C107.584 68.571 107.464 67.8494 107.226 67.2301C106.993 66.6108 106.646 66.1307 106.186 65.7898C105.732 65.4432 105.172 65.2699 104.507 65.2699C103.82 65.2699 103.246 65.4489 102.786 65.8068C102.325 66.1648 101.979 66.6562 101.746 67.2812C101.513 67.9006 101.396 68.6051 101.396 69.3949C101.396 70.196 101.513 70.8977 101.746 71.5C101.984 72.0966 102.334 72.5625 102.794 72.8977C103.26 73.2273 103.831 73.392 104.507 73.392ZM113.788 76V62.9091H116.874V76H113.788ZM115.339 61.0511C114.851 61.0511 114.43 60.8892 114.078 60.5653C113.726 60.2358 113.55 59.8409 113.55 59.3807C113.55 58.9148 113.726 58.5199 114.078 58.196C114.43 57.8665 114.851 57.7017 115.339 57.7017C115.834 57.7017 116.254 57.8665 116.601 58.196C116.953 58.5199 117.129 58.9148 117.129 59.3807C117.129 59.8409 116.953 60.2358 116.601 60.5653C116.254 60.8892 115.834 61.0511 115.339 61.0511ZM123.131 68.3295V76H120.046V62.9091H122.995V65.1335H123.148C123.45 64.4006 123.93 63.8182 124.589 63.3864C125.254 62.9545 126.075 62.7386 127.052 62.7386C127.955 62.7386 128.742 62.9318 129.413 63.3182C130.089 63.7045 130.612 64.2642 130.981 64.9972C131.356 65.7301 131.54 66.6193 131.535 67.6648V76H128.45V68.142C128.45 67.267 128.222 66.5824 127.768 66.0881C127.319 65.5937 126.697 65.3466 125.901 65.3466C125.362 65.3466 124.881 65.4659 124.461 65.7045C124.046 65.9375 123.719 66.2756 123.481 66.7188C123.248 67.1619 123.131 67.6989 123.131 68.3295ZM140.467 76.2557C139.154 76.2557 138.021 75.983 137.066 75.4375C136.117 74.8864 135.387 74.108 134.876 73.1023C134.364 72.0909 134.109 70.9006 134.109 69.5312C134.109 68.1847 134.364 67.0028 134.876 65.9858C135.393 64.9631 136.114 64.1676 137.04 63.5994C137.967 63.0256 139.055 62.7386 140.305 62.7386C141.112 62.7386 141.873 62.8693 142.589 63.1307C143.31 63.3864 143.947 63.7841 144.498 64.3239C145.055 64.8636 145.492 65.5511 145.81 66.3864C146.129 67.2159 146.288 68.2045 146.288 69.3523V70.2983H135.558V68.2188H143.33C143.325 67.6278 143.197 67.1023 142.947 66.642C142.697 66.1761 142.347 65.8097 141.898 65.5426C141.455 65.2756 140.938 65.142 140.347 65.142C139.717 65.142 139.163 65.2955 138.685 65.6023C138.208 65.9034 137.836 66.3011 137.569 66.7955C137.308 67.2841 137.174 67.821 137.168 68.4062V70.2216C137.168 70.983 137.308 71.6364 137.586 72.1818C137.864 72.7216 138.254 73.1364 138.754 73.4261C139.254 73.7102 139.839 73.8523 140.509 73.8523C140.958 73.8523 141.364 73.7898 141.728 73.6648C142.092 73.5341 142.407 73.3438 142.674 73.0938C142.941 72.8438 143.143 72.5341 143.279 72.1648L146.16 72.4886C145.978 73.25 145.631 73.9148 145.12 74.483C144.614 75.0455 143.967 75.483 143.177 75.7955C142.387 76.1023 141.484 76.2557 140.467 76.2557ZM154.693 76.2557C153.381 76.2557 152.247 75.983 151.293 75.4375C150.344 74.8864 149.614 74.108 149.102 73.1023C148.591 72.0909 148.335 70.9006 148.335 69.5312C148.335 68.1847 148.591 67.0028 149.102 65.9858C149.619 64.9631 150.341 64.1676 151.267 63.5994C152.193 63.0256 153.281 62.7386 154.531 62.7386C155.338 62.7386 156.099 62.8693 156.815 63.1307C157.537 63.3864 158.173 63.7841 158.724 64.3239C159.281 64.8636 159.719 65.5511 160.037 66.3864C160.355 67.2159 160.514 68.2045 160.514 69.3523V70.2983H149.784V68.2188H157.557C157.551 67.6278 157.423 67.1023 157.173 66.642C156.923 66.1761 156.574 65.8097 156.125 65.5426C155.682 65.2756 155.165 65.142 154.574 65.142C153.943 65.142 153.389 65.2955 152.912 65.6023C152.435 65.9034 152.063 66.3011 151.795 66.7955C151.534 67.2841 151.401 67.821 151.395 68.4062V70.2216C151.395 70.983 151.534 71.6364 151.812 72.1818C152.091 72.7216 152.48 73.1364 152.98 73.4261C153.48 73.7102 154.065 73.8523 154.736 73.8523C155.185 73.8523 155.591 73.7898 155.955 73.6648C156.318 73.5341 156.634 73.3438 156.901 73.0938C157.168 72.8438 157.369 72.5341 157.506 72.1648L160.386 72.4886C160.205 73.25 159.858 73.9148 159.347 74.483C158.841 75.0455 158.193 75.483 157.403 75.7955C156.614 76.1023 155.71 76.2557 154.693 76.2557ZM163.124 76V62.9091H166.116V65.0909H166.252C166.491 64.3352 166.9 63.7528 167.479 63.3438C168.065 62.929 168.732 62.7216 169.482 62.7216C169.653 62.7216 169.843 62.7301 170.053 62.7472C170.269 62.7585 170.448 62.7784 170.59 62.8068V65.6449C170.46 65.5994 170.252 65.5597 169.968 65.5256C169.69 65.4858 169.42 65.4659 169.158 65.4659C168.596 65.4659 168.09 65.5881 167.641 65.8324C167.198 66.071 166.849 66.4034 166.593 66.8295C166.337 67.2557 166.21 67.7472 166.21 68.304V76H163.124ZM177.896 76.2557C176.584 76.2557 175.45 75.983 174.496 75.4375C173.547 74.8864 172.817 74.108 172.305 73.1023C171.794 72.0909 171.538 70.9006 171.538 69.5312C171.538 68.1847 171.794 67.0028 172.305 65.9858C172.822 64.9631 173.544 64.1676 174.47 63.5994C175.396 63.0256 176.484 62.7386 177.734 62.7386C178.541 62.7386 179.303 62.8693 180.018 63.1307C180.74 63.3864 181.376 63.7841 181.928 64.3239C182.484 64.8636 182.922 65.5511 183.24 66.3864C183.558 67.2159 183.717 68.2045 183.717 69.3523V70.2983H172.987V68.2188H180.76C180.754 67.6278 180.626 67.1023 180.376 66.642C180.126 66.1761 179.777 65.8097 179.328 65.5426C178.885 65.2756 178.368 65.142 177.777 65.142C177.146 65.142 176.592 65.2955 176.115 65.6023C175.638 65.9034 175.266 66.3011 174.999 66.7955C174.737 67.2841 174.604 67.821 174.598 68.4062V70.2216C174.598 70.983 174.737 71.6364 175.016 72.1818C175.294 72.7216 175.683 73.1364 176.183 73.4261C176.683 73.7102 177.268 73.8523 177.939 73.8523C178.388 73.8523 178.794 73.7898 179.158 73.6648C179.521 73.5341 179.837 73.3438 180.104 73.0938C180.371 72.8438 180.572 72.5341 180.709 72.1648L183.589 72.4886C183.408 73.25 183.061 73.9148 182.55 74.483C182.044 75.0455 181.396 75.483 180.607 75.7955C179.817 76.1023 178.913 76.2557 177.896 76.2557ZM186.327 76V62.9091H189.319V65.0909H189.455C189.694 64.3352 190.103 63.7528 190.683 63.3438C191.268 62.929 191.935 62.7216 192.685 62.7216C192.856 62.7216 193.046 62.7301 193.256 62.7472C193.472 62.7585 193.651 62.7784 193.793 62.8068V65.6449C193.663 65.5994 193.455 65.5597 193.171 65.5256C192.893 65.4858 192.623 65.4659 192.362 65.4659C191.799 65.4659 191.293 65.5881 190.844 65.8324C190.401 66.071 190.052 66.4034 189.796 66.8295C189.54 67.2557 189.413 67.7472 189.413 68.304V76H186.327ZM206.19 66.3693L203.377 66.6761C203.298 66.392 203.158 66.125 202.96 65.875C202.766 65.625 202.505 65.4233 202.175 65.2699C201.846 65.1165 201.442 65.0398 200.965 65.0398C200.323 65.0398 199.783 65.179 199.346 65.4574C198.914 65.7358 198.701 66.0966 198.707 66.5398C198.701 66.9205 198.84 67.2301 199.124 67.4688C199.414 67.7074 199.891 67.9034 200.556 68.0568L202.789 68.5341C204.028 68.8011 204.948 69.2244 205.55 69.804C206.158 70.3835 206.465 71.142 206.471 72.0795C206.465 72.9034 206.224 73.6307 205.746 74.2614C205.275 74.8864 204.619 75.375 203.778 75.7273C202.937 76.0795 201.971 76.2557 200.88 76.2557C199.278 76.2557 197.988 75.9205 197.011 75.25C196.033 74.5739 195.451 73.6335 195.263 72.429L198.272 72.1392C198.408 72.7301 198.698 73.1761 199.141 73.4773C199.585 73.7784 200.161 73.929 200.871 73.929C201.604 73.929 202.192 73.7784 202.636 73.4773C203.085 73.1761 203.309 72.804 203.309 72.3608C203.309 71.9858 203.164 71.6761 202.874 71.4318C202.59 71.1875 202.147 71 201.545 70.8693L199.312 70.4006C198.056 70.1392 197.127 69.6989 196.525 69.0795C195.923 68.4545 195.624 67.6648 195.63 66.7102C195.624 65.9034 195.843 65.2045 196.286 64.6136C196.735 64.017 197.357 63.5568 198.153 63.233C198.954 62.9034 199.877 62.7386 200.923 62.7386C202.457 62.7386 203.664 63.0653 204.545 63.7188C205.431 64.3722 205.979 65.2557 206.19 66.3693Z" fill="black"/>
</svg>
