<svg width="712" height="337" viewBox="0 0 712 337" fill="none" xmlns="http://www.w3.org/2000/svg">
<rect width="712" height="337" fill="white"/>
<path d="M12.017 255V228.494H45.8523V227.131C35.4545 220.426 27.2159 211.562 21.1364 200.54C15.0568 189.517 12.017 176.392 12.017 161.165C12.017 149.006 13.9773 137.869 17.8977 127.756C21.875 117.585 27.4716 108.807 34.6875 101.42C41.9034 93.9773 50.4261 88.2386 60.2557 84.2045C70.0852 80.1136 80.9091 78.0682 92.7273 78.0682C104.545 78.0682 115.369 80.1136 125.199 84.2045C135.028 88.2386 143.551 93.9773 150.767 101.42C157.983 108.807 163.551 117.585 167.472 127.756C171.449 137.869 173.438 149.006 173.438 161.165C173.438 176.392 170.398 189.517 164.318 200.54C158.239 211.562 150 220.426 139.602 227.131V228.494H173.438V255H106.619V221.591C113.21 218.864 119.148 214.688 124.432 209.062C129.773 203.381 134.006 196.619 137.131 188.778C140.256 180.937 141.818 172.386 141.818 163.125C141.818 152.386 139.716 142.756 135.511 134.233C131.364 125.71 125.597 118.977 118.21 114.034C110.824 109.034 102.33 106.534 92.7273 106.534C85.5682 106.534 78.9773 107.983 72.9545 110.881C66.9886 113.722 61.8182 117.699 57.4432 122.812C53.0682 127.926 49.6591 133.92 47.2159 140.795C44.8295 147.614 43.6364 155.057 43.6364 163.125C43.6364 172.386 45.1989 180.937 48.3239 188.778C51.4489 196.619 55.6534 203.381 60.9375 209.062C66.2784 214.688 72.2443 218.864 78.8352 221.591V255H12.017Z" fill="#0028B8"/>
<path d="M201.674 255V89.9091H264.873C276.803 89.9091 286.718 91.79 294.618 95.5518C302.572 99.2599 308.51 104.338 312.433 110.787C316.41 117.236 318.398 124.545 318.398 132.713C318.398 139.431 317.109 145.181 314.529 149.964C311.95 154.693 308.483 158.536 304.13 161.491C299.777 164.447 294.914 166.57 289.54 167.86V169.472C295.397 169.794 301.013 171.595 306.387 174.873C311.815 178.097 316.249 182.665 319.688 188.577C323.128 194.488 324.847 201.636 324.847 210.019C324.847 218.564 322.778 226.249 318.64 233.074C314.502 239.845 308.268 245.192 299.939 249.115C291.609 253.038 281.129 255 268.5 255H201.674ZM231.581 230.011H263.744C274.6 230.011 282.419 227.942 287.202 223.804C292.039 219.612 294.457 214.238 294.457 207.681C294.457 202.791 293.248 198.384 290.83 194.461C288.411 190.484 284.972 187.368 280.511 185.11C276.051 182.8 270.731 181.644 264.55 181.644H231.581V230.011ZM231.581 160.121H261.165C266.324 160.121 270.972 159.181 275.11 157.3C279.248 155.365 282.5 152.651 284.864 149.158C287.283 145.611 288.492 141.419 288.492 136.583C288.492 130.188 286.235 124.921 281.721 120.783C277.26 116.645 270.623 114.576 261.81 114.576H231.581V160.121ZM367.712 301.432C363.735 301.432 360.054 301.109 356.668 300.464C353.337 299.873 350.676 299.175 348.688 298.369L355.459 275.636C359.705 276.872 363.493 277.464 366.825 277.41C370.157 277.356 373.086 276.308 375.612 274.266C378.191 272.278 380.368 268.946 382.141 264.27L384.64 257.58L339.74 131.182H370.695L399.231 224.69H400.521L429.138 131.182H460.173L410.597 269.994C408.286 276.55 405.223 282.166 401.407 286.841C397.592 291.57 392.916 295.171 387.381 297.643C381.9 300.169 375.343 301.432 367.712 301.432ZM542.194 131.182V153.753H471.015V131.182H542.194ZM488.588 101.517H517.769V217.758C517.769 221.681 518.36 224.69 519.543 226.786C520.779 228.828 522.391 230.226 524.379 230.978C526.368 231.73 528.571 232.107 530.989 232.107C532.816 232.107 534.482 231.972 535.987 231.703C537.546 231.435 538.728 231.193 539.534 230.978L544.451 253.791C542.893 254.328 540.663 254.919 537.761 255.564C534.912 256.209 531.419 256.585 527.281 256.693C519.972 256.908 513.389 255.806 507.532 253.388C501.674 250.916 497.025 247.1 493.586 241.941C490.2 236.782 488.534 230.333 488.588 222.594V101.517ZM620.084 257.418C607.67 257.418 596.949 254.839 587.921 249.68C578.946 244.467 572.04 237.104 567.204 227.592C562.367 218.027 559.949 206.768 559.949 193.816C559.949 181.08 562.367 169.902 567.204 160.282C572.094 150.609 578.919 143.085 587.679 137.711C596.439 132.283 606.73 129.57 618.553 129.57C626.184 129.57 633.385 130.806 640.156 133.278C646.981 135.696 653 139.458 658.213 144.563C663.48 149.669 667.618 156.171 670.627 164.071C673.637 171.917 675.142 181.268 675.142 192.124V201.071H573.653V181.402H647.17C647.116 175.813 645.907 170.842 643.542 166.489C641.178 162.083 637.872 158.616 633.627 156.091C629.435 153.565 624.545 152.302 618.956 152.302C612.991 152.302 607.751 153.753 603.237 156.655C598.722 159.503 595.202 163.265 592.677 167.94C590.205 172.562 588.942 177.641 588.888 183.176V200.346C588.888 207.547 590.205 213.727 592.838 218.886C595.471 223.992 599.152 227.915 603.882 230.656C608.611 233.343 614.146 234.686 620.487 234.686C624.733 234.686 628.575 234.095 632.015 232.913C635.454 231.677 638.437 229.876 640.963 227.512C643.488 225.147 645.396 222.218 646.686 218.725L673.932 221.788C672.213 228.99 668.934 235.277 664.098 240.651C659.315 245.972 653.189 250.11 645.719 253.065C638.249 255.967 629.704 257.418 620.084 257.418Z" fill="black"/>
</svg>
