<svg width="712" height="337" viewBox="0 0 712 337" fill="none" xmlns="http://www.w3.org/2000/svg">
<g clip-path="url(#clip0_4_19)">
<rect width="712" height="337" fill="white"/>
<path d="M12.017 255V228.494H45.8523V227.131C35.4545 220.426 27.2159 211.562 21.1364 200.54C15.0568 189.517 12.017 176.392 12.017 161.165C12.017 149.006 13.9773 137.869 17.8977 127.756C21.875 117.585 27.4716 108.807 34.6875 101.42C41.9034 93.9773 50.4261 88.2386 60.2557 84.2045C70.0852 80.1136 80.9091 78.0682 92.7273 78.0682C104.545 78.0682 115.369 80.1136 125.199 84.2045C135.028 88.2386 143.551 93.9773 150.767 101.42C157.983 108.807 163.551 117.585 167.472 127.756C171.449 137.869 173.438 149.006 173.438 161.165C173.438 176.392 170.398 189.517 164.318 200.54C158.239 211.562 150 220.426 139.602 227.131V228.494H173.438V255H106.619V221.591C113.21 218.864 119.148 214.688 124.432 209.062C129.773 203.381 134.006 196.619 137.131 188.778C140.256 180.937 141.818 172.386 141.818 163.125C141.818 152.386 139.716 142.756 135.511 134.233C131.364 125.71 125.597 118.977 118.21 114.034C110.824 109.034 102.33 106.534 92.7273 106.534C85.5682 106.534 78.9773 107.983 72.9545 110.881C66.9886 113.722 61.8182 117.699 57.4432 122.812C53.0682 127.926 49.6591 133.92 47.2159 140.795C44.8295 147.614 43.6364 155.057 43.6364 163.125C43.6364 172.386 45.1989 180.937 48.3239 188.778C51.4489 196.619 55.6534 203.381 60.9375 209.062C66.2784 214.688 72.2443 218.864 78.8352 221.591V255H12.017Z" fill="#0028B8"/>
<path d="M202.607 255V80.4545H269.425C282.038 80.4545 292.521 82.4432 300.874 86.4204C309.283 90.3409 315.561 95.7102 319.709 102.528C323.913 109.347 326.016 117.074 326.016 125.71C326.016 132.812 324.652 138.892 321.925 143.949C319.197 148.949 315.533 153.011 310.93 156.136C306.328 159.261 301.186 161.506 295.504 162.869V164.574C301.697 164.915 307.635 166.818 313.317 170.284C319.055 173.693 323.743 178.523 327.379 184.773C331.016 191.023 332.834 198.58 332.834 207.443C332.834 216.477 330.646 224.602 326.271 231.818C321.896 238.977 315.305 244.631 306.499 248.778C297.692 252.926 286.612 255 273.26 255H202.607ZM234.226 228.58H268.232C279.709 228.58 287.976 226.392 293.033 222.017C298.146 217.585 300.703 211.903 300.703 204.972C300.703 199.801 299.425 195.142 296.868 190.994C294.311 186.79 290.675 183.494 285.959 181.108C281.243 178.665 275.618 177.443 269.084 177.443H234.226V228.58ZM234.226 154.688H265.504C270.959 154.688 275.874 153.693 280.249 151.705C284.624 149.659 288.061 146.79 290.561 143.097C293.118 139.347 294.396 134.915 294.396 129.801C294.396 123.04 292.01 117.472 287.237 113.097C282.521 108.722 275.504 106.534 266.186 106.534H234.226V154.688ZM378.153 304.091C373.949 304.091 370.057 303.75 366.477 303.068C362.955 302.443 360.142 301.705 358.04 300.852L365.199 276.818C369.688 278.125 373.693 278.75 377.216 278.693C380.739 278.636 383.835 277.528 386.506 275.369C389.233 273.267 391.534 269.744 393.409 264.801L396.051 257.727L348.58 124.091H381.307L411.477 222.955H412.841L443.097 124.091H475.909L423.494 270.852C421.051 277.784 417.813 283.722 413.778 288.665C409.744 293.665 404.801 297.472 398.949 300.085C393.153 302.756 386.222 304.091 378.153 304.091ZM562.628 124.091V147.955H487.372V124.091H562.628ZM505.952 92.7273H536.804V215.625C536.804 219.773 537.429 222.955 538.679 225.17C539.986 227.33 541.69 228.807 543.793 229.602C545.895 230.398 548.224 230.795 550.781 230.795C552.713 230.795 554.474 230.653 556.065 230.369C557.713 230.085 558.963 229.83 559.815 229.602L565.014 253.722C563.366 254.29 561.009 254.915 557.94 255.597C554.929 256.278 551.236 256.676 546.861 256.79C539.134 257.017 532.173 255.852 525.98 253.295C519.787 250.682 514.872 246.648 511.236 241.193C507.656 235.739 505.895 228.92 505.952 220.739V92.7273ZM644.979 257.557C631.854 257.557 620.518 254.83 610.973 249.375C601.484 243.864 594.183 236.08 589.07 226.023C583.956 215.909 581.399 204.006 581.399 190.312C581.399 176.847 583.956 165.028 589.07 154.858C594.24 144.631 601.456 136.676 610.717 130.994C619.979 125.256 630.859 122.386 643.359 122.386C651.428 122.386 659.041 123.693 666.2 126.307C673.416 128.864 679.78 132.841 685.291 138.239C690.859 143.636 695.234 150.511 698.416 158.864C701.598 167.159 703.189 177.045 703.189 188.523V197.983H595.888V177.188H673.615C673.558 171.278 672.28 166.023 669.78 161.42C667.28 156.761 663.786 153.097 659.297 150.426C654.865 147.756 649.695 146.42 643.786 146.42C637.479 146.42 631.939 147.955 627.166 151.023C622.393 154.034 618.672 158.011 616.001 162.955C613.388 167.841 612.053 173.21 611.996 179.062V197.216C611.996 204.83 613.388 211.364 616.172 216.818C618.956 222.216 622.848 226.364 627.848 229.261C632.848 232.102 638.7 233.523 645.405 233.523C649.893 233.523 653.956 232.898 657.592 231.648C661.229 230.341 664.382 228.438 667.053 225.938C669.723 223.438 671.74 220.341 673.104 216.648L701.911 219.886C700.092 227.5 696.626 234.148 691.513 239.83C686.456 245.455 679.979 249.83 672.081 252.955C664.183 256.023 655.149 257.557 644.979 257.557Z" fill="black"/>
</g>
<defs>
<clipPath id="clip0_4_19">
<rect width="712" height="337" fill="white"/>
</clipPath>
</defs>
</svg>
