<svg width="906" height="337" viewBox="0 0 906 337" fill="none" xmlns="http://www.w3.org/2000/svg">
<rect width="906" height="337" fill="white"/>
<path d="M108.017 255V228.494H141.852V227.131C131.455 220.426 123.216 211.562 117.136 200.54C111.057 189.517 108.017 176.392 108.017 161.165C108.017 149.006 109.977 137.869 113.898 127.756C117.875 117.585 123.472 108.807 130.688 101.42C137.903 93.9773 146.426 88.2386 156.256 84.2045C166.085 80.1136 176.909 78.0682 188.727 78.0682C200.545 78.0682 211.369 80.1136 221.199 84.2045C231.028 88.2386 239.551 93.9773 246.767 101.42C253.983 108.807 259.551 117.585 263.472 127.756C267.449 137.869 269.438 149.006 269.438 161.165C269.438 176.392 266.398 189.517 260.318 200.54C254.239 211.562 246 220.426 235.602 227.131V228.494H269.438V255H202.619V221.591C209.21 218.864 215.148 214.688 220.432 209.062C225.773 203.381 230.006 196.619 233.131 188.778C236.256 180.937 237.818 172.386 237.818 163.125C237.818 152.386 235.716 142.756 231.511 134.233C227.364 125.71 221.597 118.977 214.21 114.034C206.824 109.034 198.33 106.534 188.727 106.534C181.568 106.534 174.977 107.983 168.955 110.881C162.989 113.722 157.818 117.699 153.443 122.812C149.068 127.926 145.659 133.92 143.216 140.795C140.83 147.614 139.636 155.057 139.636 163.125C139.636 172.386 141.199 180.937 144.324 188.778C147.449 196.619 151.653 203.381 156.938 209.062C162.278 214.688 168.244 218.864 174.835 221.591V255H108.017Z" fill="#0028B8"/>
<path d="M298.607 255V80.4545H365.425C378.038 80.4545 388.521 82.4432 396.874 86.4204C405.283 90.3409 411.561 95.7102 415.709 102.528C419.913 109.347 422.016 117.074 422.016 125.71C422.016 132.812 420.652 138.892 417.925 143.949C415.197 148.949 411.533 153.011 406.93 156.136C402.328 159.261 397.186 161.506 391.504 162.869V164.574C397.697 164.915 403.635 166.818 409.317 170.284C415.055 173.693 419.743 178.523 423.379 184.773C427.016 191.023 428.834 198.58 428.834 207.443C428.834 216.477 426.646 224.602 422.271 231.818C417.896 238.977 411.305 244.631 402.499 248.778C393.692 252.926 382.612 255 369.26 255H298.607ZM330.226 228.58H364.232C375.709 228.58 383.976 226.392 389.033 222.017C394.146 217.585 396.703 211.903 396.703 204.972C396.703 199.801 395.425 195.142 392.868 190.994C390.311 186.79 386.675 183.494 381.959 181.108C377.243 178.665 371.618 177.443 365.084 177.443H330.226V228.58ZM330.226 154.688H361.504C366.959 154.688 371.874 153.693 376.249 151.705C380.624 149.659 384.061 146.79 386.561 143.097C389.118 139.347 390.396 134.915 390.396 129.801C390.396 123.04 388.01 117.472 383.237 113.097C378.521 108.722 371.504 106.534 362.186 106.534H330.226V154.688ZM474.153 304.091C469.949 304.091 466.057 303.75 462.477 303.068C458.955 302.443 456.142 301.705 454.04 300.852L461.199 276.818C465.688 278.125 469.693 278.75 473.216 278.693C476.739 278.636 479.835 277.528 482.506 275.369C485.233 273.267 487.534 269.744 489.409 264.801L492.051 257.727L444.58 124.091H477.307L507.477 222.955H508.841L539.097 124.091H571.909L519.494 270.852C517.051 277.784 513.813 283.722 509.778 288.665C505.744 293.665 500.801 297.472 494.949 300.085C489.153 302.756 482.222 304.091 474.153 304.091ZM658.628 124.091V147.955H583.372V124.091H658.628ZM601.952 92.7273H632.804V215.625C632.804 219.773 633.429 222.955 634.679 225.17C635.986 227.33 637.69 228.807 639.793 229.602C641.895 230.398 644.224 230.795 646.781 230.795C648.713 230.795 650.474 230.653 652.065 230.369C653.713 230.085 654.963 229.83 655.815 229.602L661.014 253.722C659.366 254.29 657.009 254.915 653.94 255.597C650.929 256.278 647.236 256.676 642.861 256.79C635.134 257.017 628.173 255.852 621.98 253.295C615.787 250.682 610.872 246.648 607.236 241.193C603.656 235.739 601.895 228.92 601.952 220.739V92.7273ZM740.979 257.557C727.854 257.557 716.518 254.83 706.973 249.375C697.484 243.864 690.183 236.08 685.07 226.023C679.956 215.909 677.399 204.006 677.399 190.312C677.399 176.847 679.956 165.028 685.07 154.858C690.24 144.631 697.456 136.676 706.717 130.994C715.979 125.256 726.859 122.386 739.359 122.386C747.428 122.386 755.041 123.693 762.2 126.307C769.416 128.864 775.78 132.841 781.291 138.239C786.859 143.636 791.234 150.511 794.416 158.864C797.598 167.159 799.189 177.045 799.189 188.523V197.983H691.888V177.188H769.615C769.558 171.278 768.28 166.023 765.78 161.42C763.28 156.761 759.786 153.097 755.297 150.426C750.865 147.756 745.695 146.42 739.786 146.42C733.479 146.42 727.939 147.955 723.166 151.023C718.393 154.034 714.672 158.011 712.001 162.955C709.388 167.841 708.053 173.21 707.996 179.062V197.216C707.996 204.83 709.388 211.364 712.172 216.818C714.956 222.216 718.848 226.364 723.848 229.261C728.848 232.102 734.7 233.523 741.405 233.523C745.893 233.523 749.956 232.898 753.592 231.648C757.229 230.341 760.382 228.438 763.053 225.938C765.723 223.438 767.74 220.341 769.104 216.648L797.911 219.886C796.092 227.5 792.626 234.148 787.513 239.83C782.456 245.455 775.979 249.83 768.081 252.955C760.183 256.023 751.149 257.557 740.979 257.557Z" fill="black"/>
</svg>
